# xmcd
#
# Track frame offsets: 
#        150
#        13617
#        28145
#        46205
#        62767
#        80437
#        96162
#        109325
#        124222
#        146282
#        163632
#        177835
#        187005
#        200855
#        213952
#        225110
#        240250
#        251625
#        265577
#        279935
#
# Disc length: 3968 seconds
#
# Revision: 2
# Processed by: cddbd v1.5.2PL0 Copyright (c) Steve Scherf et al.
# Submitted via: ExactAudioCopy v1.0b4
#
DISCID=0e0f7e14
DTITLE=Luiz Gonzaga and Fagner - 2 LPs em 1 CD
DYEAR=2001
DGENRE=Forró
TTITLE0=Sangue De Nordestino
TTITLE1=Seu Januário - São João Na Roça - Olha Pro Céu
TTITLE2=Baião - Algodão - No Ceará Não Tem Disso Não
TTITLE3=O Cheiro Da Carolina - Cintura Fina - O Xote Das Meninas
TTITLE4=Acauã
TTITLE5=Corrida De Mourão
TTITLE6=Súplica Cearense
TTITLE7=Cigarro De Paia - Boiadeiro
TTITLE8=Vaca Estrela E Boi Fubá
TTITLE9=Feira De Gado
TTITLE10=ABC Do Sertão
TTITLE11=Xamego
TTITLE12=Vem Morena
TTITLE13=Derramaro O Gai
TTITLE14=Pobre Sanfoneiro
TTITLE15=Noites Brasileiras
TTITLE16=Estrada De Canindé
TTITLE17=Juazeiro
TTITLE18=Vozes Da Seca
TTITLE19=Amanhã Eu Vou
EXTD=
EXTT0=
EXTT1=
EXTT2=
EXTT3=
EXTT4=
EXTT5=
EXTT6=
EXTT7=
EXTT8=
EXTT9=
EXTT10=
EXTT11=
EXTT12=
EXTT13=
EXTT14=
EXTT15=
EXTT16=
EXTT17=
EXTT18=
EXTT19=
PLAYORDER=
